# xmcd
#
# Track frame offsets: 
#        150
#        13697
#        29926
#        46523
#        62236
#        81779
#        96696
#        117166
#        137559
#        153843
#        168999
#
# Disc length: 2456 seconds
#
# Revision: 0
# Processed by: cddbd v1.4PL0 Copyright (c) Steve Scherf et al.
# Submitted via: ExactAudioCopy v0.90b4
#
DISCID=8d09960b
DTITLE=2 of us - any 2nd now
DYEAR=2001
DGENRE=Pop, Guitar
TTITLE0=talk, talk, talk
TTITLE1=I can't stand the rain***
TTITLE2=how could I...
TTITLE3=today
TTITLE4=heaven
TTITLE5=weakness
TTITLE6=rescue me
TTITLE7=I had a dream
TTITLE8=I 'm here
TTITLE9=samba pa ti
TTITLE10=always
EXTD=lola planet studios, germany, 2001
EXTT0=
EXTT1=
EXTT2=
EXTT3=
EXTT4=
EXTT5=
EXTT6=
EXTT7=
EXTT8=
EXTT9=
EXTT10=
PLAYORDER=
